
<global>
amp_veltrack=0
ampeg_release=0.35
xf_cccurve=gain
xfin_hicc1=127
xfout_hicc1=127
xfout_locc1=127
</global>

<group>
group_label=MF

<region>
hikey=A5
hivel=127
lokey=G#5
loop_end=259807
loop_mode=loop_continuous
loop_start=70161
loop_xfade=50085
lovel=0
pitch_keycenter=G#5
sample=Viola_sustain_MF_G#5.opus
</region>

<region>
hikey=A4
hivel=127
lokey=G#4
loop_end=280960
loop_mode=loop_continuous
loop_start=75873
loop_xfade=54163
lovel=0
pitch_keycenter=G#4
sample=Viola_sustain_MF_G#4.opus
tune=+1
</region>

<region>
hikey=A3
hivel=127
lokey=G#3
loop_end=269052
loop_mode=loop_continuous
loop_start=72657
loop_xfade=51867
lovel=0
pitch_keycenter=G#3
sample=Viola_sustain_MF_G#3.opus
tune=+1
</region>

<region>
hikey=G5
hivel=127
lokey=F#5
loop_end=271616
loop_mode=loop_continuous
loop_start=73350
loop_xfade=52361
lovel=0
pitch_keycenter=F#5
sample=Viola_sustain_MF_F#5.opus
tune=+1
</region>

<region>
hikey=G4
hivel=127
lokey=F#4
loop_end=251072
loop_mode=loop_continuous
loop_start=67802
loop_xfade=48401
lovel=0
pitch_keycenter=F#4
sample=Viola_sustain_MF_F#4.opus
tune=-1
</region>

<region>
hikey=G3
hivel=127
lokey=F#3
loop_end=260417
loop_mode=loop_continuous
loop_start=70326
loop_xfade=50202
lovel=0
pitch_keycenter=F#3
sample=Viola_sustain_MF_F#3.opus
tune=+1
</region>

<region>
hikey=F5
hivel=127
lokey=E5
loop_end=270102
loop_mode=loop_continuous
loop_start=72941
loop_xfade=52069
lovel=0
pitch_keycenter=E5
sample=Viola_sustain_MF_E5.opus
tune=+2
</region>

<region>
hikey=F4
hivel=127
lokey=E4
loop_end=269292
loop_mode=loop_continuous
loop_start=72722
loop_xfade=51913
lovel=0
pitch_keycenter=E4
sample=Viola_sustain_MF_E4.opus
</region>

<region>
hikey=F3
hivel=127
lokey=E3
loop_end=269304
loop_mode=loop_continuous
loop_start=72726
loop_xfade=51915
lovel=0
pitch_keycenter=E3
sample=Viola_sustain_MF_E3.opus
tune=+1
</region>

<region>
hikey=D#5
hivel=127
lokey=D5
loop_end=280311
loop_mode=loop_continuous
loop_start=75698
loop_xfade=54037
lovel=0
pitch_keycenter=D5
sample=Viola_sustain_MF_D5.opus
tune=-2
</region>

<region>
hikey=D#4
hivel=127
lokey=D4
loop_end=264559
loop_mode=loop_continuous
loop_start=71444
loop_xfade=51001
lovel=0
pitch_keycenter=D4
sample=Viola_sustain_MF_D4.opus
tune=-1
</region>

<region>
hikey=D#3
hivel=127
lokey=D3
loop_end=280456
loop_mode=loop_continuous
loop_start=75737
loop_xfade=54065
lovel=0
pitch_keycenter=D3
sample=Viola_sustain_MF_D3.opus
tune=+1
</region>

<region>
hikey=C#6
hivel=127
lokey=C6
loop_end=273974
loop_mode=loop_continuous
loop_start=73987
loop_xfade=52816
lovel=0
pitch_keycenter=C6
sample=Viola_sustain_MF_C6.opus
tune=-2
</region>

<region>
hikey=C#5
hivel=127
lokey=C5
loop_end=269909
loop_mode=loop_continuous
loop_start=72889
loop_xfade=52032
lovel=0
pitch_keycenter=C5
sample=Viola_sustain_MF_C5.opus
tune=+1
</region>

<region>
hikey=C#4
hivel=127
lokey=C4
loop_end=263577
loop_mode=loop_continuous
loop_start=71179
loop_xfade=50811
lovel=0
sample=Viola_sustain_MF_C4.opus
tune=+1
</region>

<region>
hikey=C#3
hivel=127
lokey=C3
loop_end=276453
loop_mode=loop_continuous
loop_start=74656
loop_xfade=53294
lovel=0
pitch_keycenter=C3
sample=Viola_sustain_MF_C3.opus
tune=-2
</region>

<region>
hikey=B5
hivel=127
lokey=A#5
loop_end=236582
loop_mode=loop_continuous
loop_start=63889
loop_xfade=45607
lovel=0
pitch_keycenter=A#5
sample=Viola_sustain_MF_A#5.opus
tune=-3
</region>

<region>
hikey=B4
hivel=127
lokey=A#4
loop_end=269951
loop_mode=loop_continuous
loop_start=72900
loop_xfade=52040
lovel=0
pitch_keycenter=A#4
sample=Viola_sustain_MF_A#4.opus
tune=+2
</region>

<region>
hikey=B3
hivel=127
lokey=A#3
loop_end=269814
loop_mode=loop_continuous
loop_start=72863
loop_xfade=52014
lovel=0
pitch_keycenter=A#3
sample=Viola_sustain_MF_A#3.opus
tune=+1
</region>
</group>